<svg id="Arrowleft.svg" xmlns="http://www.w3.org/2000/svg" xmlns:xlink="http://www.w3.org/1999/xlink" width="101" height="100" viewBox="0 0 101 100">
  <defs>
    <style>
      .cls-1 {
        fill: #fff;
        stroke: #e6e6e6;
        stroke-linejoin: round;
        stroke-width: 1px;
        filter: url(#filter);
      }

      .cls-2 {
        fill: #02f;
        fill-rule: evenodd;
      }
    </style>
    <filter id="filter" x="0.5" y="0.5" width="100" height="99" filterUnits="userSpaceOnUse">
      <feOffset result="offset" in="SourceAlpha"/>
      <feGaussianBlur result="blur" stdDeviation="5"/>
      <feFlood result="flood" flood-opacity="0.16"/>
      <feComposite result="composite" operator="in" in2="blur"/>
      <feBlend result="blend" in="SourceGraphic"/>
    </filter>
  </defs>
  <g style="fill: #fff; filter: url(#filter)">
    <circle id="Circle" class="cls-1" cx="49.844" cy="49.5" r="25" style="stroke: inherit; filter: none; fill: inherit"/>
  </g>
  <use xlink:href="#Circle" style="stroke: #e6e6e6; filter: none; fill: none"/>
  <path id="Arrowleft1.svg" class="cls-2" d="M413.5,2630.24l-5.132-5.24,5.2-5.31h0a1,1,0,0,0-.7-1.69,0.981,0.981,0,0,0-.68.28h0l-5.877,6h0a1.008,1.008,0,0,0-.3.72h0a0.991,0.991,0,0,0,.3.72h0l5.877,6h0a0.974,0.974,0,0,0,.677.28,0.992,0.992,0,0,0,.98-1A1.01,1.01,0,0,0,413.5,2630.24Zm7.526-4.24H408.612a1,1,0,0,1,0-2h12.409A1,1,0,0,1,421.021,2626Z" transform="translate(-364.5 -2575.5)"/>
</svg>
